<?xml version="1.0" standalone="no"?>
<!DOCTYPE svg PUBLIC "-//W3C//DTD SVG 20010904//EN"
 "http://www.w3.org/TR/2001/REC-SVG-20010904/DTD/svg10.dtd">
<svg version="1.0" xmlns="http://www.w3.org/2000/svg"
 width="751.000000pt" height="751.000000pt" viewBox="0 0 751.000000 751.000000"
 preserveAspectRatio="xMidYMid meet">
<metadata>
Created by potrace 1.11, written by Peter Selinger 2001-2013
</metadata>
<g transform="translate(0.000000,751.000000) scale(0.100000,-0.100000)"
fill="#000000" stroke="none">
<path d="M408 6033 l-118 -4 0 -124 c0 -117 1 -125 19 -125 11 0 26 -3 35 -6
15 -6 16 -142 16 -1440 l0 -1433 -35 -7 -35 -6 0 -129 0 -129 245 0 245 0 0
129 0 129 -40 7 -40 7 0 642 0 643 72 6 c174 15 280 119 341 335 21 75 21 91
18 597 -2 393 -6 536 -16 588 -28 138 -118 254 -233 298 -49 19 -79 22 -207
24 -82 1 -203 0 -267 -2z m361 -277 c13 -13 27 -41 32 -63 12 -55 -1 -1157
-15 -1185 -13 -24 -51 -53 -83 -63 l-23 -6 0 670 0 671 33 0 c22 0 41 -8 56
-24z m-246 -418 c-76 -76 -141 -138 -145 -138 -5 0 -8 30 -8 67 l0 68 143 143
142 142 3 -72 3 -72 -138 -138z m0 -295 c-76 -73 -141 -133 -145 -133 -5 0 -8
28 -8 63 l0 63 143 140 142 139 3 -70 4 -70 -139 -132z m10 -296 c-70 -70
-136 -133 -145 -138 -16 -9 -18 -3 -18 60 l0 70 143 140 142 140 3 -72 3 -71
-128 -129z"/>
<path d="M2095 6030 c-176 -4 -321 -8 -322 -8 -2 -1 -3 -56 -3 -122 l0 -120
35 0 35 0 0 -1450 0 -1450 -45 0 -45 0 0 -125 0 -125 380 0 380 0 0 580 0 580
-105 0 -105 0 0 -455 0 -455 -70 0 -70 0 0 650 0 650 95 0 95 0 0 140 0 140
-90 0 -90 0 0 660 0 660 65 0 65 0 0 -460 0 -460 105 0 105 0 0 590 0 590 -47
-2 c-27 -1 -192 -5 -368 -8z"/>
<path d="M3546 5988 c-4 -29 -58 -728 -121 -1553 -64 -825 -118 -1515 -121
-1532 -5 -32 -7 -33 -49 -33 l-45 0 0 -120 0 -120 205 0 205 0 0 120 0 120
-34 0 c-19 0 -37 3 -40 8 -2 4 3 105 12 225 l16 217 83 0 83 0 2 -170 c1 -93
2 -194 3 -222 l0 -53 -42 -3 -43 -3 0 -120 0 -119 250 0 250 0 0 120 0 120
-44 0 -43 0 -6 73 c-4 39 -49 734 -102 1542 -52 809 -98 1489 -101 1513 l-5
42 -154 0 -154 0 -5 -52z m145 -1415 c0 -27 8 -262 18 -523 10 -261 16 -478
14 -482 -2 -5 -33 -8 -69 -8 l-65 0 6 48 c3 26 19 245 35 487 34 488 37 525
51 525 5 0 9 -21 10 -47z"/>
<path d="M4770 5910 l0 -130 55 0 55 0 0 -1455 0 -1455 -35 0 -35 0 0 -120 0
-120 225 0 225 0 0 125 0 125 -40 0 -40 0 0 417 c0 229 2 414 5 411 6 -5 142
-756 147 -808 2 -19 -2 -26 -19 -28 -22 -3 -23 -7 -23 -123 l0 -119 225 0 225
0 0 124 0 125 -47 3 -48 3 -142 780 c-126 695 -142 792 -142 892 -1 110 2 127
124 650 69 295 128 547 131 560 5 19 13 23 45 23 l39 0 0 125 0 125 -195 0
-195 0 0 -130 0 -130 36 0 c33 0 36 -2 31 -22 -4 -13 -47 -214 -97 -448 -50
-234 -93 -429 -95 -435 -2 -5 -4 198 -4 453 l-1 462 35 0 35 0 0 125 0 125
-240 0 -240 0 0 -130z"/>
<path d="M6390 5917 l0 -127 45 -11 c25 -6 45 -16 45 -21 0 -5 34 -348 75
-761 l76 -752 -13 -672 -12 -672 -48 -11 -48 -12 0 -56 c0 -32 3 -87 7 -124
l6 -68 243 0 244 0 -1 73 c-1 39 -4 96 -7 126 -7 51 -9 55 -42 66 l-35 12 3
654 3 654 117 777 117 778 42 6 43 6 0 124 0 124 -72 0 c-40 0 -124 3 -185 7
l-113 6 0 -126 0 -127 46 0 47 0 -5 -32 c-3 -18 -32 -205 -64 -415 -32 -211
-61 -383 -64 -383 -3 0 -19 181 -35 401 -27 387 -28 402 -10 415 10 7 21 15
25 16 4 2 10 56 14 121 l7 117 -89 0 c-49 0 -150 3 -225 7 l-137 6 0 -126z"/>
<path d="M6652 2428 c-76 -6 -87 -10 -142 -50 -32 -24 -59 -48 -59 -55 -1 -7
-12 -33 -26 -59 -31 -59 -33 -120 -3 -177 12 -23 24 -48 28 -56 10 -22 118
-78 175 -92 27 -6 61 -22 75 -34 14 -13 40 -26 58 -30 61 -13 136 -97 109
-124 -8 -8 -8 -14 0 -22 16 -16 -4 -53 -49 -96 -28 -27 -44 -34 -95 -39 -114
-12 -206 31 -228 106 -4 14 -16 33 -26 43 -11 10 -19 22 -19 27 0 12 -40 13
-55 2 -9 -6 -13 -199 -7 -275 2 -16 17 -17 220 -15 186 3 221 6 242 21 13 9
35 17 47 17 13 0 30 8 37 18 57 69 85 114 80 127 -4 8 -2 21 3 28 20 26 -11
162 -43 192 -6 6 -18 22 -27 38 -10 15 -26 27 -37 27 -10 0 -27 11 -38 24 -10
14 -38 30 -63 36 -24 6 -63 22 -86 35 -23 13 -56 26 -72 30 -33 7 -49 23 -80
80 l-22 41 36 56 c41 63 54 69 153 70 63 1 112 -19 112 -45 0 -7 9 -18 19 -24
11 -7 24 -28 31 -47 21 -64 70 -39 70 36 0 18 -1 69 -3 112 l-2 79 -115 1
c-63 1 -152 -2 -198 -6z"/>
<path d="M420 2422 c-83 -2 -108 -6 -117 -19 -11 -14 -6 -23 27 -59 21 -23 43
-59 49 -81 18 -71 13 -441 -8 -572 -11 -70 -31 -99 -71 -103 -28 -3 -38 -19
-39 -60 -1 -31 25 -44 66 -33 14 3 107 8 207 10 215 4 326 15 352 35 103 78
147 183 127 300 -7 39 -17 51 -78 102 -39 31 -80 57 -92 58 -33 0 -31 42 2 60
33 17 83 97 85 135 6 91 0 129 -27 157 -51 54 -99 67 -245 70 -73 2 -180 2
-238 0z m343 -152 c36 -39 38 -45 32 -83 -9 -54 -36 -97 -73 -119 -32 -19
-154 -40 -178 -31 -18 7 -20 203 -3 253 l12 33 85 -6 c85 -6 87 -7 125 -47z
m-30 -332 c9 -5 17 -13 17 -18 0 -5 16 -16 35 -24 19 -8 38 -23 42 -33 3 -10
15 -29 25 -42 32 -42 19 -121 -28 -162 -22 -19 -46 -25 -164 -44 -82 -14 -85
-14 -107 7 -22 21 -23 28 -23 174 l0 153 58 4 c65 4 119 -2 145 -15z"/>
<path d="M2264 2416 c-11 -29 15 -73 46 -79 67 -14 82 -61 79 -247 -1 -63 -2
-144 -2 -180 0 -36 0 -114 -1 -174 l-1 -109 -40 -13 c-46 -16 -75 -46 -75 -79
0 -21 4 -22 118 -27 64 -3 152 -3 195 0 l78 5 -3 35 c-3 34 -6 37 -52 48 -27
7 -53 17 -58 22 -6 6 -12 69 -15 141 -4 129 -4 131 21 155 24 25 25 25 71 9
45 -15 85 -58 85 -91 0 -13 101 -146 168 -223 18 -20 45 -40 60 -44 15 -3 34
-12 42 -20 17 -14 117 -45 149 -45 26 0 29 36 6 79 -14 29 -77 62 -142 76 -21
4 -33 13 -33 23 0 9 -16 35 -36 57 -20 22 -40 52 -46 68 -5 15 -16 27 -24 27
-8 0 -14 10 -14 27 0 14 -11 41 -25 59 -30 39 -32 61 -6 69 28 9 86 77 116
135 22 44 24 56 15 88 -5 20 -10 51 -10 69 0 27 -9 38 -59 76 -50 38 -70 47
-133 57 -41 7 -99 10 -129 6 -30 -3 -61 -5 -69 -5 -8 1 -49 3 -90 4 -41 2 -99
6 -127 10 -44 6 -54 5 -59 -9z m483 -121 c12 -8 25 -25 27 -38 2 -12 8 -43 14
-69 7 -39 6 -53 -8 -76 -22 -36 -70 -66 -145 -92 l-56 -19 -26 25 c-24 24 -25
27 -21 154 2 70 6 132 11 136 27 27 149 15 204 -21z"/>
<path d="M3508 2422 c-97 -2 -107 -5 -113 -23 -5 -15 4 -32 34 -64 22 -24 42
-54 45 -67 5 -26 18 -195 17 -218 -1 -8 -3 -64 -6 -125 -5 -132 -13 -204 -27
-268 -8 -37 -16 -51 -40 -63 -16 -9 -35 -13 -42 -11 -7 3 -13 0 -13 -6 0 -7
-4 -21 -9 -31 -6 -15 -4 -17 7 -11 12 7 12 6 1 -7 -11 -14 -10 -18 8 -28 12
-7 34 -9 48 -5 15 4 106 8 202 9 261 4 323 12 379 51 33 23 55 50 79 94 28 54
32 73 32 134 -1 86 -9 102 -77 155 -28 23 -54 46 -58 52 -3 5 -17 10 -31 10
-41 0 -42 29 -1 62 67 54 89 110 87 218 -1 54 -23 80 -94 115 -45 22 -66 25
-186 27 -74 2 -183 2 -242 0z m346 -148 c36 -36 38 -41 33 -87 -8 -87 -63
-133 -175 -147 -37 -5 -70 -5 -75 -1 -13 12 -10 236 3 261 12 22 16 23 95 17
78 -6 83 -7 119 -43z m-31 -331 c9 -2 17 -10 17 -18 0 -7 18 -20 40 -29 22 -9
40 -22 40 -30 0 -7 9 -24 19 -38 33 -41 35 -73 11 -124 -28 -56 -51 -67 -183
-88 -94 -16 -97 -16 -117 4 -18 18 -20 33 -20 174 l0 155 53 4 c52 3 106 0
140 -10z"/>
<path d="M4363 2420 c-29 -12 -55 -53 -47 -74 3 -9 18 -19 33 -22 14 -2 37
-10 51 -17 l25 -13 0 -279 c0 -154 -4 -303 -9 -331 -8 -49 -11 -52 -56 -71
-26 -11 -47 -26 -47 -34 -1 -8 -4 -28 -8 -45 -6 -28 -4 -32 22 -39 15 -4 51
-6 78 -4 28 2 180 2 338 1 205 -3 292 0 302 8 21 17 20 224 -1 245 -25 25 -38
18 -72 -39 -45 -76 -72 -95 -135 -96 -29 -1 -68 -2 -87 -2 -19 -1 -51 -1 -70
0 -19 1 -48 1 -64 1 -15 -1 -32 3 -38 9 -10 10 -14 244 -4 261 10 16 87 34 98
23 6 -6 28 -7 49 -5 32 5 45 1 66 -18 14 -13 32 -39 40 -57 12 -29 18 -33 40
-27 28 7 73 34 73 44 0 4 -5 42 -10 86 -7 53 -7 92 0 114 12 45 -1 61 -50 61
-39 0 -71 -22 -50 -35 14 -9 -13 -41 -50 -60 -39 -20 -183 -8 -198 16 -7 11
-12 65 -13 130 -1 102 1 113 22 135 17 18 33 24 66 24 25 0 53 -4 63 -10 12
-6 28 -6 49 1 43 15 72 -5 123 -87 34 -54 44 -64 62 -58 42 12 58 44 54 106
-2 33 0 59 6 61 6 2 6 19 0 48 l-9 44 -70 2 c-100 4 -455 4 -485 1 -14 -1 -34
1 -45 4 -11 4 -30 3 -42 -2z"/>
<path d="M5270 2415 c-12 -14 -11 -20 2 -43 9 -14 30 -31 47 -37 63 -21 66
-28 71 -228 3 -100 3 -249 0 -331 l-5 -149 -39 -13 c-54 -19 -66 -32 -66 -69
l0 -32 113 -5 c61 -3 149 -3 195 0 l82 5 0 33 c0 32 -2 34 -57 50 -32 9 -61
19 -65 23 -4 3 -9 62 -12 130 -6 170 10 202 89 175 46 -15 85 -55 85 -86 0
-11 15 -37 33 -58 17 -20 63 -76 100 -123 38 -48 74 -87 80 -87 7 0 30 -9 51
-19 52 -27 125 -51 153 -51 19 0 23 5 23 34 0 52 -31 82 -111 108 -55 18 -73
28 -81 47 -5 14 -24 42 -43 63 -19 21 -35 47 -35 58 0 13 -7 20 -19 20 -13 0
-18 5 -15 18 3 9 -9 39 -26 66 -17 27 -28 52 -23 55 4 4 24 19 44 33 22 16 50
54 72 96 l37 70 -11 75 -11 75 -59 40 c-40 28 -77 44 -116 51 -72 14 -169 14
-193 1 -13 -7 -21 -7 -25 1 -4 6 -36 9 -78 8 -40 -1 -95 2 -122 6 -42 6 -53 4
-65 -10z m465 -111 c38 -20 40 -23 52 -94 13 -78 10 -91 -30 -128 -31 -29
-162 -83 -183 -75 -33 13 -42 54 -37 178 4 95 9 123 22 133 23 20 127 11 176
-14z"/>
<path d="M1623 2410 c-15 -6 -23 -18 -23 -33 0 -14 -7 -30 -14 -37 -8 -6 -23
-33 -32 -58 -9 -26 -29 -76 -44 -112 -15 -36 -31 -86 -34 -112 -4 -26 -17 -62
-29 -80 -12 -18 -33 -69 -45 -112 -13 -44 -32 -92 -43 -107 -10 -15 -19 -36
-19 -47 0 -61 -34 -99 -102 -116 -26 -6 -28 -10 -28 -56 0 -34 4 -50 13 -50 6
0 53 4 102 9 50 5 111 5 138 1 44 -6 47 -6 47 16 0 12 3 29 6 38 5 13 -2 16
-40 16 -45 0 -46 1 -35 21 7 13 9 41 5 69 -5 34 -2 52 7 62 7 7 23 28 36 46
15 21 29 31 38 28 8 -4 33 -1 55 5 22 5 47 7 57 3 9 -3 41 -6 71 -5 l55 2 22
-44 c12 -25 25 -61 28 -81 9 -45 -10 -96 -36 -96 -21 0 -54 -54 -43 -71 4 -7
61 -10 165 -7 195 4 199 8 109 105 -43 45 -61 73 -65 100 -4 21 -15 56 -25 78
-33 75 -62 170 -64 210 -1 22 -7 49 -13 60 -6 11 -32 81 -58 155 -64 184 -78
210 -113 209 -15 0 -37 -4 -49 -9z m42 -267 c12 -69 26 -102 53 -123 22 -18
26 -27 23 -68 -1 -26 -6 -51 -10 -55 -5 -5 -49 -9 -100 -10 -88 -2 -91 -1 -91
20 0 18 35 125 85 261 10 27 34 11 40 -25z m85 -67 c0 -8 -4 -17 -9 -21 -12
-7 -24 12 -16 25 9 15 25 12 25 -4z m60 -241 c0 -8 -4 -17 -10 -20 -6 -4 -10
5 -10 20 0 15 4 24 10 20 6 -3 10 -12 10 -20z m-402 -197 c17 -17 15 -38 -3
-38 -12 0 -35 28 -35 44 0 11 26 6 38 -6z"/>
</g>
</svg>
